<svg xmlns="http://www.w3.org/2000/svg" viewBox="0 0 64 64" role="img" aria-labelledby="title">
  <title id="title">Donation on Chain coin icon</title>
  <circle cx="32" cy="32" r="29" fill="#f4b63f"/>
  <circle cx="32" cy="32" r="23" fill="#ffd76a"/>
  <circle cx="32" cy="32" r="18" fill="none" stroke="#9b6417" stroke-width="3"/>
  <path
    fill="#38220d"
    d="M32 17c1.2 0 2.2 1 2.2 2.2v1.4c3.9.7 6.6 3.1 6.6 6.7 0 1.2-1 2.2-2.2 2.2s-2.2-1-2.2-2.2c0-1.4-1.7-2.7-4.3-2.7-2.9 0-4.5 1.1-4.5 2.6 0 1.3 1.1 2.1 5.3 3.1 4.3 1 8.5 2.5 8.5 7.7 0 3.8-2.8 6.4-7.2 7.1v1.7c0 1.2-1 2.2-2.2 2.2s-2.2-1-2.2-2.2v-1.7c-4.8-.8-7.7-3.7-7.7-7.7 0-1.2 1-2.2 2.2-2.2s2.2 1 2.2 2.2c0 2.1 2.2 3.6 5.3 3.6 3.2 0 5.1-1.2 5.1-3.1 0-1.6-1.2-2.5-5.4-3.4-4.1-.9-8.4-2.4-8.4-7.3 0-3.6 2.7-6.1 6.6-6.8v-1.4C29.8 18 30.8 17 32 17Z"
  />
</svg>
